PathFileType	4	(X/Y/Z)	0_coords_data.trc
DataRate	CameraRate	NumFrames	NumMarkers	Units	OrigDataRate	OrigDataStartFrame	OrigNumFrames
30.0	30.0	5	21	m	30.0	11	72
Frame#	Time	THUMB_TIP	THUMB_IP	THUMB_MCP	THUMB_CMC	INDEX_TIP	INDEX_DIP	INDEX_PIP	INDEX_MCP	MIDDLE_TIP	MIDDLE_DIP	MIDDLE_PIP	MIDDLE_MCP	RING_TIP	RING_DIP	RING_PIP	RING_MCP	PINKY_TIP	PINKY_DIP	PINKY_PIP	PINKY_MCP	WRIST
X1	Y1	Z1	X2	Y2	Z2	X3	Y3	Z3	X4	Y4	Z4	X5	Y5	Z5	X6	Y6	Z6	X7	Y7	Z7	X8	Y8	Z8	X9	Y9	Z9	X10	Y10	Z10	X11	Y11	Z11	X12	Y12	Z12	X13	Y13	Z13	X14	Y14	Z14	X15	Y15	Z15	X16	Y16	Z16	X17	Y17	Z17	X18	Y18	Z18	X19	Y19	Z19	X20	Y20	Z20	X21	Y21	Z21
9	0.33333333333333187	0.5409481524771246	-0.022303029303257227	-0.1361173436375318	0.5280537429214883	-0.014320500170062589	-0.11885427812618021	0.4994984206245731	-0.005280856296442593	-0.11038678692999826	0.47007270620285685	-0.013672376449676116	-0.07792758607277633	0.5600414568047467	0.04488078150873409	-0.16127004285297025	0.5478574204378359	0.04086445519001969	-0.14848652296557624	0.5313607275811609	0.036418467204940796	-0.13004466436539552	0.5068793823770621	0.03442758560450543	-0.09525477759566314	0.5139550098882935	-0.005262699648019176	-0.10646118499138102	0.5267062498737107	-0.0028429240225374963	-0.11909251765094703	0.5414517322180601	0.02221652896026971	-0.11709148875686459	0.5205234808120577	0.027768347423399287	-0.07801037406140571	0.524370856173693	-0.013216590042249954	-0.0979108432463337	0.5381458869314609	-0.009007809646565224	-0.10875218519294932	0.5548902391808189	0.007879464249891277	-0.10136120236957025	0.5321810084062842	0.012522734808678937	-0.06823339365624259	0.6037315204850925	0.01264160492109323	-0.07654726198667111	0.5877874965023316	0.006946561218453162	-0.0740264334597448	0.5676070303811478	0.0019858132668041373	-0.07103447993537959	0.5333518839414385	-0.0072276833925458694	-0.06450915444907479	0.4622830810018609	-0.023011742144276925	-0.051989820119430985
10	0.3666666666666651	0.5410209591745465	-0.02225578354070179	-0.13606196713981544	0.5281151394844156	-0.014248903314052597	-0.11881871665848437	0.4995686104773923	-0.005202995343794314	-0.11032829672512451	0.4701203657653011	-0.01363800150453609	-0.07790081525577458	0.5601819397582966	0.04503286294672493	-0.16105134163828744	0.5479746812862363	0.040996718534493826	-0.14829624936579006	0.5314553912626374	0.03654349225192144	-0.1298763778735011	0.5069323576173278	0.03448804268686201	-0.095119622531316	0.5139934951622249	-0.005268562449038172	-0.10646006182755824	0.5267912551780692	-0.0027620890106170304	-0.11902727828464776	0.5415175317941185	0.02230139794503727	-0.11693731449277256	0.5205417174625174	0.027815871193818564	-0.07787641692353231	0.5244516801443189	-0.01303306153267303	-0.09775303615803665	0.5382049058254166	-0.008940113526433646	-0.10866617319479271	0.5549367239926548	0.007949307344594092	-0.10125174789948	0.5321992473354521	0.012531763077641034	-0.06813484755059718	0.6037643119387668	0.012592366930340715	-0.07644424189435672	0.5878124848959101	0.0069171563126484426	-0.07392805461205565	0.5676290937544362	0.0019565784474269154	-0.07095561314529009	0.5333608240697068	-0.007229431333170111	-0.064460509749236	0.4622830810018609	-0.023011742144276925	-0.051989820119430985
11	0.39999999999999825	0.5411370091529808	-0.022198741810811384	-0.13596999554375788	0.5281795992037631	-0.014180664006174348	-0.1187706945193936	0.49963118927721983	-0.005154011714265105	-0.11026611698332417	0.4701349822698137	-0.013624682721453563	-0.07789156671827457	0.5603261804171202	0.04517331652415979	-0.16081030393384355	0.5480928015313641	0.041113713280627406	-0.14808772312087015	0.5315429474684787	0.03664402980171766	-0.1296993003202176	0.506974297885395	0.034562726398257304	-0.09497631473708568	0.5140173941315204	-0.005244419401046918	-0.10642936038032752	0.5268593911167614	-0.0026654029437042093	-0.11893662976832003	0.5415883729702005	0.02239068791170773	-0.11677816860202334	0.5205654253899785	0.027859868237594898	-0.0777362467410011	0.5244759897482942	-0.012945529159070657	-0.09767534138997941	0.5382547133259946	-0.008854599726523249	-0.10855702659711741	0.5550105908413465	0.0080058859086789	-0.10113108747565458	0.5322329161041782	0.012512357379559802	-0.06803138834635875	0.6038099118106381	0.012508121240832448	-0.07630715041836489	0.5878532785190733	0.006836873955821221	-0.07381259470025042	0.5676616848786528	0.0019037176785060561	-0.07085024185095745	0.5333740804908511	-0.0072435388985374605	-0.06440265831452008	0.4622830810018609	-0.023011742144276925	-0.051989820119430985
12	0.43333333333333146	0.5412397881186776	-0.02208878162072947	-0.13590865146641906	0.5282302980694333	-0.014088684332544621	-0.11874031980495037	0.4996639822482033	-0.005112874410327151	-0.11024205900394124	0.4701708842457506	-0.013573577928438163	-0.07786207033506831	0.5604604499376458	0.04533329597568647	-0.16054776510653201	0.5482046774255213	0.04125100927691083	-0.1478540274599579	0.5316269215512829	0.0367592204953453	-0.12949614967640255	0.5070046642154385	0.03466139606557783	-0.09481215235271828	0.5140797770937185	-0.005205170531338066	-0.10634678783102808	0.5269402631166872	-0.0025746900481111723	-0.11882430648180115	0.5416526029768319	0.02248536742199403	-0.11659941874651658	0.5205807938073652	0.02792145041858174	-0.07757922165603803	0.5245416694747476	-0.012777351266839654	-0.09753813866470762	0.5383469156448826	-0.008780892373864702	-0.10842131350014678	0.555079900872376	0.00809125715147141	-0.10097028976033856	0.532256252521466	0.01252864664335629	-0.06789293369230748	0.6038490821355043	0.012480845539554863	-0.07612465300403842	0.5878847179477207	0.006821331872687297	-0.0736530176882304	0.5676855346871805	0.0019118726234302885	-0.07070306438571833	0.5333884045966861	-0.007258011793443431	-0.0643388253631102	0.4622830810018609	-0.023011742144276925	-0.051989820119430985
13	0.4666666666666647	0.5413500027946105	-0.021952420142752116	-0.13586067809222419	0.5283104582498925	-0.01401395004996464	-0.1186865414137116	0.4997446558101696	-0.0050661170001037314	-0.11015710915320709	0.4701805445119567	-0.01352614442311939	-0.07784176822743777	0.5605559683617727	0.04555599558274814	-0.16029858650185286	0.548278053257002	0.0414421351984916	-0.14763647951214187	0.5316706230563455	0.036909582395001195	-0.1293154789877738	0.5069970043556293	0.034772296483687515	-0.0946704123383218	0.5141250086239171	-0.00510351687261501	-0.10627095442525697	0.526985328771787	-0.00243478489654958	-0.1187405187854989	0.5416806668822172	0.02262861148379225	-0.11644209547766149	0.5205729567383005	0.02800368136476017	-0.0774328514801792	0.5245798207715241	-0.012580723230133595	-0.09739977737039118	0.5383917187483321	-0.008668752165902793	-0.10830518688452073	0.5551194549638743	0.008201027650648673	-0.10083703121900905	0.5322514495753082	0.012586878080905306	-0.06778344624624189	0.6038691239245955	0.01250311915251301	-0.0759812166855674	0.5879010543124741	0.006844397589611084	-0.07353180387103547	0.5676987066392476	0.0019380670675901435	-0.07059836079185955	0.5333907918278048	-0.0072260718350761755	-0.06428417117929464	0.4622830810018609	-0.023011742144276925	-0.051989820119430985
